<svg width="20" height="20" viewBox="0 0 20 20" fill="none" xmlns="http://www.w3.org/2000/svg">
<path fill-rule="evenodd" clip-rule="evenodd" d="M5.5 1H14.504C16.987 1 19 3.013 19 5.496V14.505C19 16.987 16.987 19 14.504 19H5.496C3.013 19 1 16.987 1 14.504V5.5C1 3.015 3.015 1 5.5 1V1Z" stroke="white" stroke-width="1.5" stroke-linecap="round" stroke-linejoin="round"/>
<path d="M6.12012 9.09998V14.5" stroke="white" stroke-width="1.5" stroke-linecap="round" stroke-linejoin="round"/>
<path d="M9.71899 14.5V11.35C9.71899 10.107 10.726 9.09998 11.969 9.09998C13.212 9.09998 14.219 10.107 14.219 11.35V14.5" stroke="white" stroke-width="1.5" stroke-linecap="round" stroke-linejoin="round"/>
<path d="M6.11805 5.83801C5.99405 5.83801 5.89305 5.93901 5.89405 6.06301C5.89405 6.18701 5.99505 6.28801 6.11905 6.28801C6.24305 6.28801 6.34405 6.18701 6.34405 6.06301C6.34405 5.93801 6.24305 5.83801 6.11805 5.83801" stroke="white" stroke-width="1.5" stroke-linecap="round" stroke-linejoin="round"/>
</svg>
