<svg width="22" height="19" viewBox="0 0 22 19" fill="none" xmlns="http://www.w3.org/2000/svg">
<path d="M20.583 3.555C20.354 2.551 19.676 1.759 18.814 1.487C17.255 1 11 1 11 1C11 1 4.748 1 3.186 1.487C2.327 1.755 1.649 2.547 1.417 3.555C1 5.377 1 9.182 1 9.182C1 9.182 1 12.987 1.417 14.809C1.646 15.813 2.324 16.605 3.186 16.877C4.748 17.364 11 17.364 11 17.364C11 17.364 17.255 17.364 18.814 16.877C19.673 16.609 20.351 15.817 20.583 14.809C21 12.987 21 9.182 21 9.182C21 9.182 21 5.377 20.583 3.555Z" stroke="white" stroke-width="1.5" stroke-linecap="round" stroke-linejoin="round"/>
<path d="M9.00195 12.182L14.198 9.18201L9.00195 6.18201V12.182Z" stroke="white" stroke-width="1.5" stroke-linecap="round" stroke-linejoin="round"/>
</svg>
